<svg width="68" height="68" viewBox="0 0 68 68" fill="none" xmlns="http://www.w3.org/2000/svg">
<circle opacity="0.15" cx="34.0924" cy="33.8209" r="33.3209" fill="#4A3AFF"/>
<g filter="url(#filter0_d_1766_221)">
<rect x="17.2109" y="20.5532" width="33.6238" height="26.9089" rx="1" fill="white"/>
</g>
<rect x="17.2891" y="19.7939" width="33.0457" height="27.1681" fill="white" stroke="black"/>
<path d="M20.042 18.3208H48.1396C49.249 18.3208 50.3132 18.7619 51.0977 19.5464C51.8819 20.3307 52.3232 21.3943 52.3232 22.5034V45.1382C52.3232 46.2473 51.8819 47.3109 51.0977 48.0952C50.3132 48.8797 49.249 49.3208 48.1396 49.3208H20.042C18.9327 49.3207 17.8693 48.8796 17.085 48.0952C16.3006 47.3108 15.8595 46.2475 15.8594 45.1382V22.5034C15.8595 21.3941 16.3006 20.3308 17.085 19.5464C17.8693 18.762 18.9327 18.3209 20.042 18.3208ZM18.8711 25.1245C18.6647 25.1246 18.4659 25.1961 18.3076 25.3257L18.2422 25.3853C18.0754 25.5521 17.9815 25.7782 17.9814 26.0142V45.1362C17.9814 45.6827 18.1986 46.2068 18.585 46.5933C18.9714 46.9797 19.4955 47.1977 20.042 47.1978H48.1396C48.6863 47.1978 49.2111 46.9798 49.5977 46.5933C49.9839 46.2068 50.2012 45.6826 50.2012 45.1362V26.0142C50.2011 25.8075 50.129 25.6081 49.999 25.4497L49.9404 25.3853L49.875 25.3257C49.7166 25.1958 49.5172 25.1245 49.3105 25.1245H18.8711ZM36.4326 19.6626C36.0734 19.6626 35.7204 19.7592 35.4111 19.9419C35.1117 20.1188 34.8642 20.3709 34.6914 20.6724C34.4917 20.9826 34.3815 21.3417 34.3721 21.7104L34.3711 21.7231L34.3721 21.7368C34.3815 22.0936 34.4863 22.4405 34.6738 22.7437V22.7446C34.8472 23.0591 35.102 23.3217 35.4111 23.5044C35.7204 23.6871 36.0734 23.7837 36.4326 23.7837C36.7918 23.7837 37.1448 23.6871 37.4541 23.5044C37.7632 23.3217 38.0181 23.0591 38.1914 22.7446L38.1904 22.7437C38.3781 22.4404 38.4837 22.0937 38.4932 21.7368L37.9932 21.7231L38.4932 21.7104C38.4849 21.3876 38.3993 21.0722 38.2441 20.7905L38.1738 20.6724C38.001 20.3709 37.7536 20.1188 37.4541 19.9419C37.1448 19.7592 36.7918 19.6626 36.4326 19.6626ZM41.8955 19.6626C41.5365 19.6627 41.1841 19.7593 40.875 19.9419C40.5678 20.1233 40.3139 20.3831 40.1406 20.6948C39.9499 20.9998 39.8441 21.3505 39.835 21.7104V21.7368C39.8447 22.1051 39.9551 22.4639 40.1543 22.7739V22.7729C40.3272 23.075 40.575 23.3272 40.875 23.5044C41.1842 23.687 41.5365 23.7836 41.8955 23.7837C42.2547 23.7837 42.6077 23.6871 42.917 23.5044C43.2166 23.3274 43.4639 23.0754 43.6367 22.7739C43.836 22.4639 43.9473 22.1053 43.957 21.7368L43.457 21.7231L43.957 21.7104C43.9479 21.3504 43.8413 20.9999 43.6504 20.6948C43.4771 20.3832 43.2241 20.1233 42.917 19.9419C42.6077 19.7592 42.2547 19.6626 41.8955 19.6626ZM47.3545 19.6626C46.9975 19.6663 46.6472 19.7632 46.3398 19.9448C46.0408 20.1216 45.7929 20.3726 45.6182 20.6724C45.4185 20.9826 45.3082 21.3417 45.2988 21.7104L45.2979 21.7231L45.2988 21.7368C45.3083 22.0936 45.4131 22.4405 45.6006 22.7437V22.7446C45.7739 23.0591 46.0288 23.3217 46.3379 23.5044C46.6472 23.6871 47.0002 23.7837 47.3594 23.7837C47.7186 23.7837 48.0716 23.6871 48.3809 23.5044C48.69 23.3217 48.9448 23.0591 49.1182 22.7446L49.1172 22.7437C49.3048 22.4404 49.4105 22.0937 49.4199 21.7368L48.9199 21.7231L49.4199 21.7192C49.4183 21.5001 49.3818 21.2832 49.3115 21.0767L49.2305 20.8735C49.0683 20.515 48.8064 20.2103 48.4766 19.9956C48.1447 19.7797 47.7572 19.6644 47.3613 19.6626H47.3545Z" fill="#4A3AFF" stroke="black"/>
<path d="M27.0755 30.8281C27.3506 30.8257 27.6164 30.9299 27.8158 31.1191V31.1201L31.7181 35.0225C31.917 35.2214 32.0287 35.4911 32.0287 35.7725C32.0286 36.0186 31.943 36.2556 31.7884 36.4443L31.7181 36.5225L27.8158 40.4248C27.6168 40.6236 27.347 40.7354 27.0658 40.7354C26.8197 40.7353 26.5826 40.6497 26.3939 40.4951L26.3158 40.4248C26.1169 40.2259 26.0052 39.9561 26.0052 39.6748C26.0052 39.3935 26.1169 39.1238 26.3158 38.9248L28.8382 36.4023C28.921 36.3197 28.9868 36.2213 29.0316 36.1133C29.0764 36.0052 29.099 35.8894 29.099 35.7725C29.099 35.6846 29.0863 35.5974 29.0609 35.5137L29.0316 35.4316L28.9935 35.3516C28.9522 35.2746 28.8993 35.2035 28.8372 35.1416L26.3216 32.626C26.1285 32.4259 26.0214 32.158 26.0238 31.8799C26.0262 31.6017 26.1386 31.3354 26.3353 31.1387C26.5319 30.9422 26.7976 30.8306 27.0755 30.8281Z" fill="#4A3AFF" stroke="black"/>
<path d="M35.6517 38.6138H41.8958C42.1771 38.6138 42.4469 38.7255 42.6458 38.9243C42.8447 39.1232 42.9573 39.3931 42.9574 39.6743C42.9574 39.9557 42.8448 40.2263 42.6458 40.4253C42.4469 40.624 42.1771 40.7358 41.8958 40.7358H35.6517C35.3705 40.7357 35.1006 40.6241 34.9017 40.4253C34.7027 40.2263 34.5912 39.9557 34.5912 39.6743C34.5913 39.3931 34.7028 39.1232 34.9017 38.9243C35.1006 38.7254 35.3705 38.6139 35.6517 38.6138Z" fill="#4A3AFF" stroke="black"/>
<defs>
<filter id="filter0_d_1766_221" x="7.21094" y="10.5532" width="53.6238" height="46.9087" filterUnits="userSpaceOnUse" color-interpolation-filters="sRGB">
<feFlood flood-opacity="0" result="BackgroundImageFix"/>
<feColorMatrix in="SourceAlpha" type="matrix" values="0 0 0 0 0 0 0 0 0 0 0 0 0 0 0 0 0 0 127 0" result="hardAlpha"/>
<feOffset/>
<feGaussianBlur stdDeviation="5"/>
<feColorMatrix type="matrix" values="0 0 0 0 0.290196 0 0 0 0 0.227451 0 0 0 0 1 0 0 0 0.5 0"/>
<feBlend mode="normal" in2="BackgroundImageFix" result="effect1_dropShadow_1766_221"/>
<feBlend mode="normal" in="SourceGraphic" in2="effect1_dropShadow_1766_221" result="shape"/>
</filter>
</defs>
</svg>
