<svg width="41" height="42" viewBox="0 0 41 42" fill="none" xmlns="http://www.w3.org/2000/svg">
<path fill-rule="evenodd" clip-rule="evenodd" d="M34.8992 12.4116C38.1409 12.4116 40.7687 9.78374 40.7687 6.54211C40.7687 3.30047 38.1409 0.672607 34.8992 0.672607C31.6576 0.672607 29.0297 3.30047 29.0297 6.54211C29.0297 9.78374 31.6576 12.4116 34.8992 12.4116Z" fill="#8055FA"/>
<path fill-rule="evenodd" clip-rule="evenodd" d="M34.8991 26.4945C38.1407 26.4945 40.7686 23.867 40.7686 20.6258C40.7686 17.3846 38.1407 14.7571 34.8991 14.7571C31.6574 14.7571 29.0296 17.3846 29.0296 20.6258C29.0296 23.867 31.6574 26.4945 34.8991 26.4945Z" fill="#7550FB"/>
<path fill-rule="evenodd" clip-rule="evenodd" d="M34.8991 41.1028C38.1407 41.1028 40.7686 38.4749 40.7686 35.2333C40.7686 31.9916 38.1407 29.3638 34.8991 29.3638C31.6574 29.3638 29.0296 31.9916 29.0296 35.2333C29.0296 38.4749 31.6574 41.1028 34.8991 41.1028Z" fill="#6A4AFC"/>
<path d="M20.2922 14.7568C23.5332 14.7571 26.1604 17.3849 26.1604 20.626C26.1602 23.8668 23.5331 26.4939 20.2922 26.4941C17.0512 26.4941 14.4233 23.867 14.4231 20.626C14.4231 17.3848 17.051 14.7568 20.2922 14.7568Z" fill="#6045FD"/>
<path d="M20.2922 14.7568C23.5332 14.7571 26.1604 17.3849 26.1604 20.626C26.1602 23.8668 23.5331 26.4939 20.2922 26.4941C17.0512 26.4941 14.4233 23.867 14.4231 20.626C14.4231 17.3848 17.051 14.7568 20.2922 14.7568Z" stroke="#A0A3BD"/>
<path fill-rule="evenodd" clip-rule="evenodd" d="M20.2912 41.1025C23.5324 41.1025 26.1599 38.4747 26.1599 35.233C26.1599 31.9914 23.5324 29.3635 20.2912 29.3635C17.05 29.3635 14.4225 31.9914 14.4225 35.233C14.4225 38.4747 17.05 41.1025 20.2912 41.1025Z" fill="#553FFE"/>
<path fill-rule="evenodd" clip-rule="evenodd" d="M6.20739 41.1028C9.44903 41.1028 12.0769 38.4749 12.0769 35.2333C12.0769 31.9916 9.44903 29.3638 6.20739 29.3638C2.96575 29.3638 0.337891 31.9916 0.337891 35.2333C0.337891 38.4749 2.96575 41.1028 6.20739 41.1028Z" fill="#4A3AFF"/>
</svg>
