<svg width="305" height="42" viewBox="0 0 305 42" fill="none" xmlns="http://www.w3.org/2000/svg">
<path d="M63.7124 7.45166V15.9146C65.05 14.6678 66.7687 14.2476 68.273 14.2476C73.8134 14.2476 77.5209 18.7632 77.521 24.5073C77.521 30.5248 73.3976 34.7319 68.4536 34.7319C67.1095 34.7319 64.8438 34.3457 63.2066 32.7144V34.2974H56.4224V7.45166H63.7124ZM102.05 14.6812V34.2974H94.7603V14.6812H102.05ZM111.085 14.6812L111.23 14.9302L113.797 19.353L116.366 14.9302L116.51 14.6812H124.913L124.366 15.4663L118.021 24.5796L124.221 33.5122L124.766 34.2974H116.555L116.409 34.0601L113.797 29.8325L111.186 34.0601L111.04 34.2974H102.829L103.374 33.5122L109.573 24.5796L103.229 15.4663L102.682 14.6812H111.085ZM66.9361 20.7417C65.9573 20.7417 65.1243 21.093 64.5357 21.7085C63.9468 22.3246 63.5679 23.2423 63.5679 24.4351C63.5679 25.6486 63.9487 26.5965 64.5415 27.2358C65.1327 27.8733 65.9644 28.2368 66.9361 28.2368C68.6767 28.2366 70.1948 26.8071 70.1948 24.4351C70.1948 22.0811 68.6933 20.7419 66.9361 20.7417ZM98.3687 6.22217C100.535 6.22217 102.267 7.7947 102.267 9.9751C102.267 12.1557 100.535 13.729 98.3687 13.729C96.195 13.7289 94.5073 12.1488 94.5073 9.9751C94.5076 7.80166 96.1951 6.2223 98.3687 6.22217ZM93.3384 21.6655L92.6148 21.3032C92.4352 21.2136 92.0643 21.1392 91.4282 21.1392C89.979 21.1393 88.8932 21.6836 88.1558 22.6431C87.4047 23.6203 86.9761 25.0806 86.9761 26.9653V34.2974H79.6861V14.6812H86.94V16.5171C88.0617 15.0764 89.6736 14.2477 91.6812 14.2476C92.1604 14.2476 92.6356 14.2814 93.0142 14.4233L93.3384 14.5454V21.6655Z" fill="#170F49" stroke="black"/>
<path d="M131.202 18.8321H133.588V26.2788C133.588 30.6167 136.046 33.0025 140.095 33.0025C141.938 33.0025 143.348 32.6049 144.324 32.1349V26.821C143.565 27.3633 142.661 27.5079 141.902 27.5079C140.745 27.5079 139.878 26.821 139.878 25.2305V18.8321H143.818V13.952H139.878V8.92726H133.769V13.952H131.202V18.8321Z" fill="#4A3AFF"/>
<path d="M163.661 24.7605C163.842 24.1822 164.023 23.0615 164.023 22.0855C164.023 16.9885 160.408 13.5182 155.094 13.5182C149.599 13.5182 145.406 17.7838 145.406 23.2784C145.406 28.7731 149.491 33.0025 155.853 33.0025C158.998 33.0025 161.456 32.2072 163.914 30.0021L160.733 26.0258C159.83 26.8933 158.348 27.7609 156.323 27.7609C154.19 27.7609 152.166 26.8572 151.877 24.7605H163.661ZM154.95 18.5068C156.576 18.5068 157.841 19.5189 157.95 21.1095V21.1456H151.768C151.877 19.4466 153.323 18.5068 154.95 18.5068Z" fill="#4A3AFF"/>
<path d="M167.115 13.952V32.5687H173.404V22.7723C173.404 20.4588 174.597 19.0128 176.369 19.0128C178.248 19.0128 179.261 20.1696 179.261 22.3385V32.5687H185.551V22.7723C185.551 20.4588 186.816 19.0128 188.515 19.0128C190.394 19.0128 191.407 20.1696 191.407 22.3385V32.5687H197.697V21.2179C197.697 16.4101 195.022 13.5182 190.503 13.5182C187.358 13.5182 185.659 14.928 184.394 16.5547C183.129 14.5665 181.104 13.5182 178.357 13.5182C176.152 13.5182 174.38 14.2773 173.115 16.1571V13.952H167.115Z" fill="#4A3AFF"/>
<path d="M201.957 39.7985H208.247V30.7613C209.44 32.4964 211.537 33.0025 213.308 33.0025C218.514 33.0025 222.056 28.7731 222.056 23.2423C222.056 17.4584 218.008 13.5182 213.38 13.5182C211.862 13.5182 209.296 14.0604 207.741 16.4824V13.952H201.957V39.7985ZM208.103 23.3146C208.103 20.6757 209.766 19.0128 211.971 19.0128C214.031 19.0128 215.73 20.7118 215.73 23.3146C215.73 25.9173 214.031 27.5079 211.971 27.5079C209.766 27.5079 208.103 25.9173 208.103 23.3146Z" fill="#4A3AFF"/>
<path d="M225.004 27.0018C225.004 30.9059 227.246 33.0025 231.15 33.0025C232.415 33.0025 233.391 32.7856 234.078 32.4603V27.3994C233.608 27.5802 233.174 27.6163 232.849 27.6163C231.403 27.6163 231.294 26.7126 231.294 25.845V6.72217H225.004V27.0018Z" fill="#4A3AFF"/>
<path d="M241.854 33.0025C244.312 33.0025 245.939 31.918 246.662 30.5082V32.5687H252.482V20.9287C252.482 16.3017 249.301 13.5182 243.915 13.5182C240.264 13.5182 237.263 15.1087 235.673 17.1331L238.962 21.0733C239.938 19.9527 241.457 18.8682 243.589 18.8682C245.144 18.8682 246.481 19.4105 246.481 20.9649V21.001L241.674 21.9409C237.769 22.7723 235.601 24.6521 235.601 27.3994C235.601 30.689 238.239 33.0025 241.854 33.0025ZM246.481 24.7967V25.0859C246.481 27.1464 245.325 28.4839 243.336 28.4839C242.216 28.4839 241.601 27.9055 241.601 27.0018C241.601 26.098 242.324 25.6281 243.445 25.3751L246.481 24.7967Z" fill="#4A3AFF"/>
<path d="M254.723 18.8321H257.109V26.2788C257.109 30.6167 259.567 33.0025 263.616 33.0025C265.459 33.0025 266.869 32.6049 267.845 32.1349V26.821C267.086 27.3633 266.182 27.5079 265.423 27.5079C264.266 27.5079 263.399 26.821 263.399 25.2305V18.8321H267.339V13.952H263.399V8.92726H257.29V13.952H254.723V18.8321Z" fill="#4A3AFF"/>
<path d="M287.182 24.7605C287.363 24.1822 287.544 23.0615 287.544 22.0855C287.544 16.9885 283.929 13.5182 278.615 13.5182C273.12 13.5182 268.927 17.7838 268.927 23.2784C268.927 28.7731 273.012 33.0025 279.374 33.0025C282.519 33.0025 284.977 32.2072 287.435 30.0021L284.254 26.0258C283.351 26.8933 281.868 27.7609 279.844 27.7609C277.711 27.7609 275.687 26.8572 275.398 24.7605H287.182ZM278.47 18.5068C280.097 18.5068 281.362 19.5189 281.471 21.1095V21.1456H275.289C275.398 19.4466 276.844 18.5068 278.47 18.5068Z" fill="#4A3AFF"/>
<path d="M297.07 33.0025C301.697 33.0025 304.806 30.4359 304.806 27.1102C304.806 23.423 301.95 22.447 299.022 21.2902C296.383 20.1696 295.263 19.9889 295.263 19.302C295.263 18.6152 296.094 18.2176 297.07 18.2176C298.805 18.2176 299.781 19.049 300.396 20.0973L304.3 17.2777C303.143 15.0726 300.432 13.5182 297.251 13.5182C293.057 13.5182 289.551 15.5425 289.551 19.2659C289.551 22.2663 291.611 23.7484 295.263 25.0497C297.829 25.9535 299.094 26.2788 299.094 27.2548C299.094 27.9417 298.408 28.3031 297.142 28.3031C295.263 28.3031 293.817 27.1464 292.949 25.6643L288.936 28.7369C290.491 31.4843 293.6 33.0025 297.07 33.0025Z" fill="#4A3AFF"/>
<path fill-rule="evenodd" clip-rule="evenodd" d="M34.8992 12.4116C38.1409 12.4116 40.7687 9.78374 40.7687 6.54211C40.7687 3.30047 38.1409 0.672607 34.8992 0.672607C31.6576 0.672607 29.0297 3.30047 29.0297 6.54211C29.0297 9.78374 31.6576 12.4116 34.8992 12.4116Z" fill="#8055FA"/>
<path fill-rule="evenodd" clip-rule="evenodd" d="M34.8991 26.4945C38.1407 26.4945 40.7686 23.867 40.7686 20.6258C40.7686 17.3846 38.1407 14.7571 34.8991 14.7571C31.6574 14.7571 29.0296 17.3846 29.0296 20.6258C29.0296 23.867 31.6574 26.4945 34.8991 26.4945Z" fill="#7550FB"/>
<path fill-rule="evenodd" clip-rule="evenodd" d="M34.8991 41.1028C38.1407 41.1028 40.7686 38.4749 40.7686 35.2333C40.7686 31.9916 38.1407 29.3638 34.8991 29.3638C31.6574 29.3638 29.0296 31.9916 29.0296 35.2333C29.0296 38.4749 31.6574 41.1028 34.8991 41.1028Z" fill="#6A4AFC"/>
<path d="M20.2922 14.7568C23.5332 14.7571 26.1604 17.3849 26.1604 20.626C26.1602 23.8668 23.5331 26.4939 20.2922 26.4941C17.0512 26.4941 14.4233 23.867 14.4231 20.626C14.4231 17.3848 17.051 14.7568 20.2922 14.7568Z" fill="#6045FD"/>
<path d="M20.2922 14.7568C23.5332 14.7571 26.1604 17.3849 26.1604 20.626C26.1602 23.8668 23.5331 26.4939 20.2922 26.4941C17.0512 26.4941 14.4233 23.867 14.4231 20.626C14.4231 17.3848 17.051 14.7568 20.2922 14.7568Z" stroke="#A0A3BD"/>
<path fill-rule="evenodd" clip-rule="evenodd" d="M20.2912 41.1025C23.5324 41.1025 26.1599 38.4747 26.1599 35.233C26.1599 31.9914 23.5324 29.3635 20.2912 29.3635C17.05 29.3635 14.4225 31.9914 14.4225 35.233C14.4225 38.4747 17.05 41.1025 20.2912 41.1025Z" fill="#553FFE"/>
<path fill-rule="evenodd" clip-rule="evenodd" d="M6.20739 41.1028C9.44903 41.1028 12.0769 38.4749 12.0769 35.2333C12.0769 31.9916 9.44903 29.3638 6.20739 29.3638C2.96575 29.3638 0.337891 31.9916 0.337891 35.2333C0.337891 38.4749 2.96575 41.1028 6.20739 41.1028Z" fill="#4A3AFF"/>
</svg>
